<svg id="visual" viewBox="0 0 900 600" width="900" height="600" xmlns="http://www.w3.org/2000/svg" xmlns:xlink="http://www.w3.org/1999/xlink" version="1.1"><rect x="0" y="0" width="900" height="600" fill="#ffffff"></rect><path d="M0 285L25 291.8C50 298.7 100 312.3 150 318.7C200 325 250 324 300 323.7C350 323.3 400 323.7 450 334.7C500 345.7 550 367.3 600 377.5C650 387.7 700 386.3 750 380.5C800 374.7 850 364.3 875 359.2L900 354L900 0L875 0C850 0 800 0 750 0C700 0 650 0 600 0C550 0 500 0 450 0C400 0 350 0 300 0C250 0 200 0 150 0C100 0 50 0 25 0L0 0Z" fill="#fcbc3d"></path><path d="M0 297L25 298.3C50 299.7 100 302.3 150 306.7C200 311 250 317 300 316C350 315 400 307 450 289C500 271 550 243 600 242C650 241 700 267 750 266.3C800 265.7 850 238.3 875 224.7L900 211L900 0L875 0C850 0 800 0 750 0C700 0 650 0 600 0C550 0 500 0 450 0C400 0 350 0 300 0C250 0 200 0 150 0C100 0 50 0 25 0L0 0Z" fill="#fbaf31"></path><path d="M0 244L25 238.3C50 232.7 100 221.3 150 207.7C200 194 250 178 300 184.5C350 191 400 220 450 231.2C500 242.3 550 235.7 600 221.3C650 207 700 185 750 177.3C800 169.7 850 176.3 875 179.7L900 183L900 0L875 0C850 0 800 0 750 0C700 0 650 0 600 0C550 0 500 0 450 0C400 0 350 0 300 0C250 0 200 0 150 0C100 0 50 0 25 0L0 0Z" fill="#faa226"></path><path d="M0 160L25 158.7C50 157.3 100 154.7 150 152C200 149.3 250 146.7 300 146.8C350 147 400 150 450 146.7C500 143.3 550 133.7 600 129.8C650 126 700 128 750 136C800 144 850 158 875 165L900 172L900 0L875 0C850 0 800 0 750 0C700 0 650 0 600 0C550 0 500 0 450 0C400 0 350 0 300 0C250 0 200 0 150 0C100 0 50 0 25 0L0 0Z" fill="#fa941c"></path><path d="M0 102L25 108.7C50 115.3 100 128.7 150 129.2C200 129.7 250 117.3 300 108.3C350 99.3 400 93.7 450 94.5C500 95.3 550 102.7 600 105.8C650 109 700 108 750 102.8C800 97.7 850 88.3 875 83.7L900 79L900 0L875 0C850 0 800 0 750 0C700 0 650 0 600 0C550 0 500 0 450 0C400 0 350 0 300 0C250 0 200 0 150 0C100 0 50 0 25 0L0 0Z" fill="#f88614"></path><path d="M0 97L25 87C50 77 100 57 150 53.2C200 49.3 250 61.7 300 68.2C350 74.7 400 75.3 450 70.8C500 66.3 550 56.7 600 56.7C650 56.7 700 66.3 750 70.8C800 75.3 850 74.7 875 74.3L900 74L900 0L875 0C850 0 800 0 750 0C700 0 650 0 600 0C550 0 500 0 450 0C400 0 350 0 300 0C250 0 200 0 150 0C100 0 50 0 25 0L0 0Z" fill="#f7770f"></path></svg>