<svg id="esEPh0JkIND1" xmlns="http://www.w3.org/2000/svg" xmlns:xlink="http://www.w3.org/1999/xlink" viewBox="0 0 1920 1080" shape-rendering="geometricPrecision" text-rendering="geometricPrecision"><defs><linearGradient id="esEPh0JkIND2-fill" x1="0" y1="0.5" x2="1" y2="0.5" spreadMethod="pad" gradientUnits="objectBoundingBox" gradientTransform="translate(0 0)"><stop id="esEPh0JkIND2-fill-0" offset="0%" stop-color="#3bb3b9"/><stop id="esEPh0JkIND2-fill-1" offset="100%" stop-color="#3cc3ca"/></linearGradient></defs><rect width="1962.298675" height="1028.310827" rx="0" ry="0" transform="matrix(.991927 0 0 1.063098-14.2864-13.195068)" fill="url(#esEPh0JkIND2-fill)" stroke-width="0"/><path d="" fill="none" stroke="#90eaee" stroke-width="3.84"/><g transform="matrix(1.387226-1.008325 1.073774 1.477268-739.850181 1670.347796)"><path d="M1662.55511,-61.69567c-28.07337,14.388835-46.135186,37.005824-47.388673,87.227862-1.712843,68.626531,49.672467,19.91716,82.216496,83.388965s98.266883,22.680462,141.024125,28.643984c30.966108,4.318966,82.127484,28.968182,103.912515,7.993271c38.671138-37.233074,67.371851-172.584977-7.422322-178.786046s-113.618629-45.517116-154.726877-22.758558c-27.405499,15.172372-96.271289-16.649203-117.615264-5.709478Z" transform="translate(.000002 0)" fill="none" stroke="#37d3da" stroke-width="2"/><path d="M1662.55511,-61.69567c-28.07337,14.388835-46.135186,37.005824-47.388673,87.227862-1.712843,68.626531,49.672467,19.91716,82.216496,83.388965s98.266883,22.680462,141.024125,28.643984c30.966108,4.318966,82.127484,28.968182,103.912515,7.993271c38.671138-37.233074,67.371851-172.584977-7.422322-178.786046s-113.618629-45.517116-154.726877-22.758558c-27.405499,15.172372-96.271289-16.649203-117.615264-5.709478Z" transform="matrix(.911097 0 0 0.948774 159.612289 2.29966)" fill="none" stroke="#37d3da" stroke-width="2"/><path d="M1662.55511,-61.69567c-28.07337,14.388835-46.135186,37.005824-47.388673,87.227862-1.712843,68.626531,49.672467,19.91716,82.216496,83.388965s98.266883,22.680462,141.024125,28.643984c30.966108,4.318966,82.127484,28.968182,103.912515,7.993271c38.671138-37.233074,67.371851-172.584977-7.422322-178.786046s-113.618629-45.517116-154.726877-22.758558c-27.405499,15.172372-96.271289-16.649203-117.615264-5.709478Z" transform="matrix(.822393 0 0 0.854257 318.8673 6.542759)" fill="none" stroke="#37d3da" stroke-width="2"/><path d="M1662.55511,-61.69567c-28.07337,14.388835-46.135186,37.005824-47.388673,87.227862-1.712843,68.626531,49.672467,19.91716,82.216496,83.388965s98.266883,22.680462,141.024125,28.643984c30.966108,4.318966,82.127484,28.968182,103.912515,7.993271c38.671138-37.233074,67.371851-172.584977-7.422322-178.786046s-113.618629-45.517116-154.726877-22.758558c-27.405499,15.172372-96.271289-16.649203-117.615264-5.709478Z" transform="matrix(.740024 0 0 0.718462 466.748748 12.638929)" fill="none" stroke="#37d3da" stroke-width="2"/><path d="M1662.55511,-61.69567c-28.07337,14.388835-46.135186,37.005824-47.388673,87.227862-1.712843,68.626531,49.672467,19.91716,82.216496,83.388965s98.266883,22.680462,141.024125,28.643984c30.966108,4.318966,82.127484,28.968182,103.912515,7.993271c38.671138-37.233074,67.371851-172.584977-7.422322-178.786046s-113.618629-45.517116-154.726877-22.758558c-27.405499,15.172372-96.271289-16.649203-117.615264-5.709478Z" transform="matrix(.654488 0 0 0.575957 620.316081 19.036326)" fill="none" stroke="#37d3da" stroke-width="2"/><path d="M1662.55511,-61.69567c-28.07337,14.388835-46.135186,37.005824-47.388673,87.227862-1.712843,68.626531,49.672467,19.91716,82.216496,83.388965s98.266883,22.680462,141.024125,28.643984c30.966108,4.318966,82.127484,28.968182,103.912515,7.993271c38.671138-37.233074,67.371851-172.584977-7.422322-178.786046s-113.618629-45.517116-154.726877-22.758558c-27.405499,15.172372-96.271289-16.649203-117.615264-5.709478Z" transform="matrix(.606968 0 0 0.523815 705.631265 21.377108)" fill="none" stroke="#37d3da" stroke-width="2"/><path d="M1662.55511,-61.69567c-28.07337,14.388835-46.135186,37.005824-47.388673,87.227862-1.712843,68.626531,49.672467,19.91716,82.216496,83.388965s98.266883,22.680462,141.024125,28.643984c30.966108,4.318966,82.127484,28.968182,103.912515,7.993271c38.671138-37.233074,67.371851-172.584977-7.422322-178.786046s-113.618629-45.517116-154.726877-22.758558c-27.405499,15.172372-96.271289-16.649203-117.615264-5.709478Z" transform="matrix(.575287 0 0 0.412871 762.50985 26.357655)" fill="none" stroke="#37d3da" stroke-width="2"/><path d="M1662.55511,-61.69567c-28.07337,14.388835-46.135186,37.005824-47.388673,87.227862-1.712843,68.626531,49.672467,19.91716,82.216496,83.388965s98.266883,22.680462,141.024125,28.643984c30.966108,4.318966,82.127484,28.968182,103.912515,7.993271c38.671138-37.233074,67.371851-172.584977-7.422322-178.786046s-113.618629-45.517116-154.726877-22.758558c-27.405499,15.172372-96.271289-16.649203-117.615264-5.709478Z" transform="matrix(.524599 0 0 0.339664 853.512714 29.644096)" fill="none" stroke="#37d3da" stroke-width="2"/><path d="M1662.55511,-61.69567c-28.07337,14.388835-46.135186,37.005824-47.388673,87.227862-1.712843,68.626531,49.672467,19.91716,82.216496,83.388965s98.266883,22.680462,141.024125,28.643984c30.966108,4.318966,82.127484,28.968182,103.912515,7.993271c38.671138-37.233074,67.371851-172.584977-7.422322-178.786046s-113.618629-45.517116-154.726877-22.758558c-27.405499,15.172372-96.271289-16.649203-117.615264-5.709478Z" transform="matrix(.489751 0 0 0.288189 916.077183 31.954935)" fill="none" stroke="#37d3da" stroke-width="2"/></g><g transform="matrix(-1.420714-.960566 1.022915-1.512929 2538.789457 1653.741326)"><path d="M1662.55511,-61.69567c-28.07337,14.388835-46.135186,37.005824-47.388673,87.227862-1.712843,68.626531,49.672467,19.91716,82.216496,83.388965s98.266883,22.680462,141.024125,28.643984c30.966108,4.318966,82.127484,28.968182,103.912515,7.993271c38.671138-37.233074,67.371851-172.584977-7.422322-178.786046s-113.618629-45.517116-154.726877-22.758558c-27.405499,15.172372-96.271289-16.649203-117.615264-5.709478Z" transform="translate(.000002 0)" fill="none" stroke="#37d3da" stroke-width="2"/><path d="M1662.55511,-61.69567c-28.07337,14.388835-46.135186,37.005824-47.388673,87.227862-1.712843,68.626531,49.672467,19.91716,82.216496,83.388965s98.266883,22.680462,141.024125,28.643984c30.966108,4.318966,82.127484,28.968182,103.912515,7.993271c38.671138-37.233074,67.371851-172.584977-7.422322-178.786046s-113.618629-45.517116-154.726877-22.758558c-27.405499,15.172372-96.271289-16.649203-117.615264-5.709478Z" transform="matrix(.911097 0 0 0.948774 159.612289 2.29966)" fill="none" stroke="#37d3da" stroke-width="2"/><path d="M1662.55511,-61.69567c-28.07337,14.388835-46.135186,37.005824-47.388673,87.227862-1.712843,68.626531,49.672467,19.91716,82.216496,83.388965s98.266883,22.680462,141.024125,28.643984c30.966108,4.318966,82.127484,28.968182,103.912515,7.993271c38.671138-37.233074,67.371851-172.584977-7.422322-178.786046s-113.618629-45.517116-154.726877-22.758558c-27.405499,15.172372-96.271289-16.649203-117.615264-5.709478Z" transform="matrix(.822393 0 0 0.854257 318.8673 6.542759)" fill="none" stroke="#37d3da" stroke-width="2"/><path d="M1662.55511,-61.69567c-28.07337,14.388835-46.135186,37.005824-47.388673,87.227862-1.712843,68.626531,49.672467,19.91716,82.216496,83.388965s98.266883,22.680462,141.024125,28.643984c30.966108,4.318966,82.127484,28.968182,103.912515,7.993271c38.671138-37.233074,67.371851-172.584977-7.422322-178.786046s-113.618629-45.517116-154.726877-22.758558c-27.405499,15.172372-96.271289-16.649203-117.615264-5.709478Z" transform="matrix(.740024 0 0 0.718462 466.748748 12.638929)" fill="none" stroke="#37d3da" stroke-width="2"/><path d="M1662.55511,-61.69567c-28.07337,14.388835-46.135186,37.005824-47.388673,87.227862-1.712843,68.626531,49.672467,19.91716,82.216496,83.388965s98.266883,22.680462,141.024125,28.643984c30.966108,4.318966,82.127484,28.968182,103.912515,7.993271c38.671138-37.233074,67.371851-172.584977-7.422322-178.786046s-113.618629-45.517116-154.726877-22.758558c-27.405499,15.172372-96.271289-16.649203-117.615264-5.709478Z" transform="matrix(.654488 0 0 0.575957 620.316081 19.036326)" fill="none" stroke="#37d3da" stroke-width="2"/><path d="M1662.55511,-61.69567c-28.07337,14.388835-46.135186,37.005824-47.388673,87.227862-1.712843,68.626531,49.672467,19.91716,82.216496,83.388965s98.266883,22.680462,141.024125,28.643984c30.966108,4.318966,82.127484,28.968182,103.912515,7.993271c38.671138-37.233074,67.371851-172.584977-7.422322-178.786046s-113.618629-45.517116-154.726877-22.758558c-27.405499,15.172372-96.271289-16.649203-117.615264-5.709478Z" transform="matrix(.606968 0 0 0.523815 705.631265 21.377108)" fill="none" stroke="#37d3da" stroke-width="2"/><path d="M1662.55511,-61.69567c-28.07337,14.388835-46.135186,37.005824-47.388673,87.227862-1.712843,68.626531,49.672467,19.91716,82.216496,83.388965s98.266883,22.680462,141.024125,28.643984c30.966108,4.318966,82.127484,28.968182,103.912515,7.993271c38.671138-37.233074,67.371851-172.584977-7.422322-178.786046s-113.618629-45.517116-154.726877-22.758558c-27.405499,15.172372-96.271289-16.649203-117.615264-5.709478Z" transform="matrix(.575287 0 0 0.412871 762.50985 26.357655)" fill="none" stroke="#37d3da" stroke-width="2"/><path d="M1662.55511,-61.69567c-28.07337,14.388835-46.135186,37.005824-47.388673,87.227862-1.712843,68.626531,49.672467,19.91716,82.216496,83.388965s98.266883,22.680462,141.024125,28.643984c30.966108,4.318966,82.127484,28.968182,103.912515,7.993271c38.671138-37.233074,67.371851-172.584977-7.422322-178.786046s-113.618629-45.517116-154.726877-22.758558c-27.405499,15.172372-96.271289-16.649203-117.615264-5.709478Z" transform="matrix(.524599 0 0 0.339664 853.512714 29.644096)" fill="none" stroke="#37d3da" stroke-width="2"/><path d="M1662.55511,-61.69567c-28.07337,14.388835-46.135186,37.005824-47.388673,87.227862-1.712843,68.626531,49.672467,19.91716,82.216496,83.388965s98.266883,22.680462,141.024125,28.643984c30.966108,4.318966,82.127484,28.968182,103.912515,7.993271c38.671138-37.233074,67.371851-172.584977-7.422322-178.786046s-113.618629-45.517116-154.726877-22.758558c-27.405499,15.172372-96.271289-16.649203-117.615264-5.709478Z" transform="matrix(.489751 0 0 0.288189 916.077183 31.954935)" fill="none" stroke="#37d3da" stroke-width="2"/></g><g transform="matrix(1.340799 1.920014-1.072596 0.749024-2464.141898-2808.535278)"><path d="M1662.55511,-61.69567c-28.07337,14.388835-46.135186,37.005824-47.388673,87.227862-1.712843,68.626531,49.672467,19.91716,82.216496,83.388965s98.266883,22.680462,141.024125,28.643984c30.966108,4.318966,82.127484,28.968182,103.912515,7.993271c38.671138-37.233074,67.371851-172.584977-7.422322-178.786046s-113.618629-45.517116-154.726877-22.758558c-27.405499,15.172372-96.271289-16.649203-117.615264-5.709478Z" transform="translate(.000002 0)" fill="none" stroke="#37d3da" stroke-width="2"/><path d="M1662.55511,-61.69567c-28.07337,14.388835-46.135186,37.005824-47.388673,87.227862-1.712843,68.626531,49.672467,19.91716,82.216496,83.388965s98.266883,22.680462,141.024125,28.643984c30.966108,4.318966,82.127484,28.968182,103.912515,7.993271c38.671138-37.233074,67.371851-172.584977-7.422322-178.786046s-113.618629-45.517116-154.726877-22.758558c-27.405499,15.172372-96.271289-16.649203-117.615264-5.709478Z" transform="matrix(.911097 0 0 0.948774 159.612289 2.29966)" fill="none" stroke="#37d3da" stroke-width="2"/><path d="M1662.55511,-61.69567c-28.07337,14.388835-46.135186,37.005824-47.388673,87.227862-1.712843,68.626531,49.672467,19.91716,82.216496,83.388965s98.266883,22.680462,141.024125,28.643984c30.966108,4.318966,82.127484,28.968182,103.912515,7.993271c38.671138-37.233074,67.371851-172.584977-7.422322-178.786046s-113.618629-45.517116-154.726877-22.758558c-27.405499,15.172372-96.271289-16.649203-117.615264-5.709478Z" transform="matrix(.822393 0 0 0.854257 318.8673 6.542759)" fill="none" stroke="#37d3da" stroke-width="2"/><path d="M1662.55511,-61.69567c-28.07337,14.388835-46.135186,37.005824-47.388673,87.227862-1.712843,68.626531,49.672467,19.91716,82.216496,83.388965s98.266883,22.680462,141.024125,28.643984c30.966108,4.318966,82.127484,28.968182,103.912515,7.993271c38.671138-37.233074,67.371851-172.584977-7.422322-178.786046s-113.618629-45.517116-154.726877-22.758558c-27.405499,15.172372-96.271289-16.649203-117.615264-5.709478Z" transform="matrix(.740024 0 0 0.718462 466.748748 12.638929)" fill="none" stroke="#37d3da" stroke-width="2"/><path d="M1662.55511,-61.69567c-28.07337,14.388835-46.135186,37.005824-47.388673,87.227862-1.712843,68.626531,49.672467,19.91716,82.216496,83.388965s98.266883,22.680462,141.024125,28.643984c30.966108,4.318966,82.127484,28.968182,103.912515,7.993271c38.671138-37.233074,67.371851-172.584977-7.422322-178.786046s-113.618629-45.517116-154.726877-22.758558c-27.405499,15.172372-96.271289-16.649203-117.615264-5.709478Z" transform="matrix(.654488 0 0 0.575957 620.316081 19.036326)" fill="none" stroke="#37d3da" stroke-width="2"/><path d="M1662.55511,-61.69567c-28.07337,14.388835-46.135186,37.005824-47.388673,87.227862-1.712843,68.626531,49.672467,19.91716,82.216496,83.388965s98.266883,22.680462,141.024125,28.643984c30.966108,4.318966,82.127484,28.968182,103.912515,7.993271c38.671138-37.233074,67.371851-172.584977-7.422322-178.786046s-113.618629-45.517116-154.726877-22.758558c-27.405499,15.172372-96.271289-16.649203-117.615264-5.709478Z" transform="matrix(.606968 0 0 0.523815 705.631265 21.377108)" fill="none" stroke="#37d3da" stroke-width="2"/><path d="M1662.55511,-61.69567c-28.07337,14.388835-46.135186,37.005824-47.388673,87.227862-1.712843,68.626531,49.672467,19.91716,82.216496,83.388965s98.266883,22.680462,141.024125,28.643984c30.966108,4.318966,82.127484,28.968182,103.912515,7.993271c38.671138-37.233074,67.371851-172.584977-7.422322-178.786046s-113.618629-45.517116-154.726877-22.758558c-27.405499,15.172372-96.271289-16.649203-117.615264-5.709478Z" transform="matrix(.575287 0 0 0.412871 762.50985 26.357655)" fill="none" stroke="#37d3da" stroke-width="2"/><path d="M1662.55511,-61.69567c-28.07337,14.388835-46.135186,37.005824-47.388673,87.227862-1.712843,68.626531,49.672467,19.91716,82.216496,83.388965s98.266883,22.680462,141.024125,28.643984c30.966108,4.318966,82.127484,28.968182,103.912515,7.993271c38.671138-37.233074,67.371851-172.584977-7.422322-178.786046s-113.618629-45.517116-154.726877-22.758558c-27.405499,15.172372-96.271289-16.649203-117.615264-5.709478Z" transform="matrix(.524599 0 0 0.339664 853.512714 29.644096)" fill="none" stroke="#37d3da" stroke-width="2"/><path d="M1662.55511,-61.69567c-28.07337,14.388835-46.135186,37.005824-47.388673,87.227862-1.712843,68.626531,49.672467,19.91716,82.216496,83.388965s98.266883,22.680462,141.024125,28.643984c30.966108,4.318966,82.127484,28.968182,103.912515,7.993271c38.671138-37.233074,67.371851-172.584977-7.422322-178.786046s-113.618629-45.517116-154.726877-22.758558c-27.405499,15.172372-96.271289-16.649203-117.615264-5.709478Z" transform="matrix(.489751 0 0 0.288189 916.077183 31.954935)" fill="none" stroke="#37d3da" stroke-width="2"/></g></svg>
